<svg xmlns="http://www.w3.org/2000/svg" id="Layer_2" data-name="Layer 2" viewBox="0 0 300.71 77.46"><defs><style>      .cls-1 {        fill: #2e466f;      }      .cls-2 {        fill: #fff;      }      .cls-3 {        fill: #ef4e4c;      }    </style></defs><g id="_&#x421;&#x43B;&#x43E;&#x439;_1" data-name="&#x421;&#x43B;&#x43E;&#x439; 1"><g><rect class="cls-3" y="60.41" width="300.71" height="17.05"></rect><g><path class="cls-2" d="M18.35,70.49h-4.21l-.87,1.98h-1.17l3.59-7.92h1.12l3.6,7.92h-1.19l-.87-1.98ZM17.96,69.59l-1.71-3.88-1.71,3.88h3.42Z"></path><path class="cls-2" d="M23.66,72.15c-.48-.26-.85-.63-1.13-1.09-.27-.46-.41-.99-.41-1.58s.14-1.11.41-1.58c.27-.46.65-.83,1.13-1.09.48-.26,1.02-.39,1.64-.39.54,0,1.03.11,1.45.33s.76.54.99.95l-.83.53c-.19-.29-.42-.5-.7-.65-.28-.14-.59-.22-.93-.22-.39,0-.75.09-1.06.26s-.56.42-.74.74c-.18.32-.27.69-.27,1.1s.09.79.27,1.11c.18.32.42.57.74.74.31.17.67.26,1.06.26.34,0,.65-.07.93-.22.28-.14.51-.36.7-.65l.83.52c-.23.41-.56.73-.99.96s-.91.33-1.45.33c-.61,0-1.16-.13-1.64-.4Z"></path><path class="cls-2" d="M31.16,72.15c-.48-.26-.85-.63-1.13-1.09-.27-.46-.41-.99-.41-1.58s.14-1.11.41-1.58c.27-.46.65-.83,1.13-1.09.48-.26,1.02-.39,1.64-.39.54,0,1.03.11,1.45.33s.76.54.99.95l-.83.53c-.19-.29-.42-.5-.7-.65-.28-.14-.59-.22-.93-.22-.39,0-.75.09-1.06.26s-.56.42-.74.74c-.18.32-.27.69-.27,1.1s.09.79.27,1.11c.18.32.42.57.74.74.31.17.67.26,1.06.26.34,0,.65-.07.93-.22.28-.14.51-.36.7-.65l.83.52c-.23.41-.56.73-.99.96s-.91.33-1.45.33c-.61,0-1.16-.13-1.64-.4Z"></path><path class="cls-2" d="M38.65,72.15c-.48-.26-.85-.63-1.11-1.09-.27-.46-.4-.99-.4-1.58s.13-1.11.4-1.58c.27-.46.64-.83,1.11-1.09.48-.26,1.01-.39,1.61-.39s1.13.13,1.6.39c.47.26.84.62,1.11,1.09.27.46.4.99.4,1.58s-.13,1.11-.4,1.58c-.27.46-.64.83-1.11,1.09-.47.26-1.01.4-1.6.4s-1.13-.13-1.61-.4ZM41.29,71.33c.31-.18.54-.43.72-.75.17-.32.26-.69.26-1.1s-.09-.78-.26-1.1c-.17-.32-.41-.57-.72-.74-.31-.17-.65-.26-1.04-.26s-.73.09-1.04.26c-.31.17-.55.42-.72.74-.18.32-.27.69-.27,1.1s.09.78.27,1.1c.18.32.42.57.72.75.31.18.65.27,1.04.27s.73-.09,1.04-.27Z"></path><path class="cls-2" d="M52.47,71.52v2.39h-1.03v-1.44h-5.38v-6h1.09v5.05h3.28v-5.05h1.09v5.05h.95Z"></path><path class="cls-2" d="M55.01,66.48h1.09v4.37l3.68-4.37h.98v6h-1.09v-4.37l-3.67,4.37h-1v-6Z"></path><path class="cls-2" d="M68.04,67.03c.44.41.66,1.01.66,1.82v3.62h-1.03v-.79c-.18.28-.44.49-.78.64-.34.15-.73.22-1.19.22-.67,0-1.21-.16-1.61-.49s-.61-.75-.61-1.28.19-.95.58-1.27c.38-.32,1-.48,1.83-.48h1.72v-.22c0-.47-.14-.83-.41-1.08-.27-.25-.67-.37-1.2-.37-.35,0-.7.06-1.04.18-.34.12-.63.27-.86.47l-.45-.82c.31-.25.68-.44,1.11-.57.43-.13.89-.2,1.37-.2.83,0,1.47.2,1.91.61ZM66.96,71.43c.3-.18.52-.45.66-.79v-.84h-1.68c-.92,0-1.38.31-1.38.93,0,.3.12.54.35.71.23.17.56.26.97.26s.77-.09,1.08-.28Z"></path><path class="cls-2" d="M78.2,71.52v2.39h-1.03v-1.44h-5.38v-6h1.09v5.05h3.28v-5.05h1.09v5.05h.95Z"></path><path class="cls-2" d="M80.73,66.48h1.09v4.37l3.68-4.37h.98v6h-1.09v-4.37l-3.67,4.37h-1v-6Z"></path><path class="cls-2" d="M94.53,66.48v6h-.97v-1.9h-1.87l-1.31,1.9h-1.17l1.46-2.05c-.45-.14-.8-.36-1.04-.67s-.36-.7-.36-1.17c0-.69.23-1.21.7-1.57.47-.36,1.11-.54,1.94-.54h2.63ZM90.76,69.5c.25.19.63.29,1.14.29h1.66v-2.37h-1.62c-1.04,0-1.56.4-1.56,1.19,0,.4.13.7.38.89Z"></path><path class="cls-2" d="M108.87,66.48v6h-.98v-4.38l-2.24,3.7h-.48l-2.22-3.71v4.39h-1v-6h1.12l2.35,4.05,2.42-4.05h1.02Z"></path><path class="cls-2" d="M117.51,69.84h-4.87c.07.53.3.95.7,1.27.4.32.89.48,1.48.48.72,0,1.29-.24,1.73-.72l.6.7c-.27.32-.61.56-1.01.72-.4.17-.85.25-1.35.25-.63,0-1.2-.13-1.69-.39s-.87-.62-1.14-1.09c-.27-.47-.4-1-.4-1.58s.13-1.1.39-1.57c.26-.47.62-.83,1.08-1.09.46-.26.97-.39,1.54-.39s1.08.13,1.53.39c.45.26.8.62,1.05,1.09.25.47.38,1,.38,1.61,0,.08,0,.19-.02.33ZM113.27,67.81c-.35.32-.56.73-.62,1.25h3.85c-.06-.51-.27-.92-.62-1.24s-.79-.48-1.31-.48-.96.16-1.31.48Z"></path><path class="cls-2" d="M124.58,67.43h-2.2v5.05h-1.09v-5.05h-2.2v-.95h5.48v.95Z"></path><path class="cls-2" d="M127.52,72.15c-.48-.26-.85-.63-1.11-1.09-.27-.46-.4-.99-.4-1.58s.13-1.11.4-1.58c.27-.46.64-.83,1.11-1.09.48-.26,1.01-.39,1.61-.39s1.13.13,1.6.39c.47.26.84.62,1.11,1.09.27.46.4.99.4,1.58s-.13,1.11-.4,1.58c-.27.46-.64.83-1.11,1.09-.47.26-1.01.4-1.6.4s-1.13-.13-1.61-.4ZM130.16,71.33c.31-.18.54-.43.72-.75.17-.32.26-.69.26-1.1s-.09-.78-.26-1.1c-.17-.32-.41-.57-.72-.74-.31-.17-.65-.26-1.04-.26s-.73.09-1.04.26c-.31.17-.55.42-.72.74-.18.32-.27.69-.27,1.1s.09.78.27,1.1c.18.32.42.57.72.75.31.18.65.27,1.04.27s.73-.09,1.04-.27Z"></path><path class="cls-2" d="M141,71.52v2.34h-1.02v-1.39h-5.01v1.39h-1.03v-2.34h.32c.38-.02.65-.29.79-.82.14-.52.24-1.26.29-2.21l.09-2.03h4.65v5.05h.92ZM136.15,70.46c-.09.49-.27.85-.52,1.07h3.36v-4.1h-2.6l-.06,1.15c-.03.75-.09,1.38-.19,1.87Z"></path><path class="cls-2" d="M144.51,72.15c-.48-.26-.85-.63-1.11-1.09-.27-.46-.4-.99-.4-1.58s.13-1.11.4-1.58c.27-.46.64-.83,1.11-1.09.48-.26,1.01-.39,1.61-.39s1.13.13,1.6.39c.47.26.84.62,1.11,1.09.27.46.4.99.4,1.58s-.13,1.11-.4,1.58c-.27.46-.64.83-1.11,1.09-.47.26-1.01.4-1.6.4s-1.13-.13-1.61-.4ZM147.15,71.33c.31-.18.54-.43.72-.75.17-.32.26-.69.26-1.1s-.09-.78-.26-1.1c-.17-.32-.41-.57-.72-.74-.31-.17-.65-.26-1.04-.26s-.73.09-1.04.26c-.31.17-.55.42-.72.74-.18.32-.27.69-.27,1.1s.09.78.27,1.1c.18.32.42.57.72.75.31.18.65.27,1.04.27s.73-.09,1.04-.27Z"></path><path class="cls-2" d="M157.03,66.48v6h-1.09v-5.05h-2.58l-.07,1.34c-.04.81-.11,1.48-.22,2.02-.11.54-.28.97-.52,1.3-.24.32-.58.49-1.01.49-.2,0-.42-.03-.67-.1l.07-.92c.1.02.19.03.27.03.3,0,.53-.13.68-.4.15-.26.25-.58.29-.94.05-.36.09-.88.12-1.55l.1-2.22h4.61Z"></path><path class="cls-2" d="M161.23,72.15c-.48-.26-.85-.63-1.11-1.09-.27-.46-.4-.99-.4-1.58s.13-1.11.4-1.58c.27-.46.64-.83,1.11-1.09.48-.26,1.01-.39,1.61-.39s1.13.13,1.6.39c.47.26.84.62,1.11,1.09.27.46.4.99.4,1.58s-.13,1.11-.4,1.58c-.27.46-.64.83-1.11,1.09-.47.26-1.01.4-1.6.4s-1.13-.13-1.61-.4ZM163.88,71.33c.31-.18.54-.43.72-.75.17-.32.26-.69.26-1.1s-.09-.78-.26-1.1c-.17-.32-.41-.57-.72-.74-.31-.17-.65-.26-1.04-.26s-.73.09-1.04.26c-.31.17-.55.42-.72.74-.18.32-.27.69-.27,1.1s.09.78.27,1.1c.18.32.42.57.72.75.31.18.65.27,1.04.27s.73-.09,1.04-.27Z"></path><path class="cls-2" d="M173.07,67.43h-3.33v5.05h-1.09v-6h4.41v.95Z"></path><path class="cls-2" d="M176.01,72.15c-.48-.26-.85-.63-1.11-1.09-.27-.46-.4-.99-.4-1.58s.13-1.11.4-1.58c.27-.46.64-.83,1.11-1.09.48-.26,1.01-.39,1.61-.39s1.13.13,1.6.39c.47.26.84.62,1.11,1.09.27.46.4.99.4,1.58s-.13,1.11-.4,1.58c-.27.46-.64.83-1.11,1.09-.47.26-1.01.4-1.6.4s-1.13-.13-1.61-.4ZM178.66,71.33c.31-.18.54-.43.72-.75.17-.32.26-.69.26-1.1s-.09-.78-.26-1.1c-.17-.32-.41-.57-.72-.74-.31-.17-.65-.26-1.04-.26s-.73.09-1.04.26c-.31.17-.55.42-.72.74-.18.32-.27.69-.27,1.1s.09.78.27,1.1c.18.32.42.57.72.75.31.18.65.27,1.04.27s.73-.09,1.04-.27Z"></path><path class="cls-2" d="M188.69,70.82c0,.53-.2.93-.59,1.22-.4.29-.99.43-1.77.43h-2.89v-6h2.78c.71,0,1.26.13,1.66.4s.6.65.6,1.14c0,.32-.08.59-.25.82-.17.23-.41.41-.71.53.78.2,1.17.68,1.17,1.46ZM184.5,69.06h1.63c.41,0,.73-.08.94-.23s.32-.37.32-.66c0-.57-.42-.86-1.27-.86h-1.63v1.74ZM187.26,71.42c.23-.14.34-.37.34-.67s-.1-.54-.31-.69c-.21-.15-.53-.23-.98-.23h-1.81v1.8h1.74c.45,0,.79-.07,1.02-.22Z"></path><path class="cls-2" d="M201.39,65.29c.59.49.88,1.17.88,2.03s-.29,1.54-.88,2.03c-.59.49-1.4.74-2.42.74h-1.96v2.4h-1.13v-7.92h3.09c1.03,0,1.83.25,2.42.74ZM200.57,68.63c.38-.31.57-.75.57-1.32s-.19-1.01-.57-1.32c-.38-.31-.92-.46-1.64-.46h-1.92v3.55h1.92c.72,0,1.26-.15,1.64-.46Z"></path><path class="cls-2" d="M205.73,72.15c-.48-.26-.85-.63-1.11-1.09-.27-.46-.4-.99-.4-1.58s.13-1.11.4-1.58c.27-.46.64-.83,1.11-1.09.48-.26,1.01-.39,1.61-.39s1.13.13,1.6.39c.47.26.84.62,1.11,1.09.27.46.4.99.4,1.58s-.13,1.11-.4,1.58c-.27.46-.64.83-1.11,1.09-.47.26-1.01.4-1.6.4s-1.13-.13-1.61-.4ZM208.38,71.33c.31-.18.54-.43.72-.75.17-.32.26-.69.26-1.1s-.09-.78-.26-1.1c-.17-.32-.41-.57-.72-.74-.31-.17-.65-.26-1.04-.26s-.73.09-1.04.26c-.31.17-.55.42-.72.74-.18.32-.27.69-.27,1.1s.09.78.27,1.1c.18.32.42.57.72.75.31.18.65.27,1.04.27s.73-.09,1.04-.27Z"></path><path class="cls-2" d="M214.14,72.15c-.48-.26-.85-.63-1.13-1.09-.27-.46-.41-.99-.41-1.58s.14-1.11.41-1.58c.27-.46.65-.83,1.13-1.09.48-.26,1.02-.39,1.64-.39.54,0,1.03.11,1.45.33s.76.54.99.95l-.83.53c-.19-.29-.42-.5-.7-.65-.28-.14-.59-.22-.93-.22-.39,0-.75.09-1.06.26s-.56.42-.74.74c-.18.32-.27.69-.27,1.1s.09.79.27,1.11c.18.32.42.57.74.74.31.17.67.26,1.06.26.34,0,.65-.07.93-.22.28-.14.51-.36.7-.65l.83.52c-.23.41-.56.73-.99.96s-.91.33-1.45.33c-.61,0-1.16-.13-1.64-.4Z"></path><path class="cls-2" d="M221.64,72.15c-.48-.26-.85-.63-1.13-1.09-.27-.46-.41-.99-.41-1.58s.14-1.11.41-1.58c.27-.46.65-.83,1.13-1.09.48-.26,1.02-.39,1.64-.39.54,0,1.03.11,1.45.33s.76.54.99.95l-.83.53c-.19-.29-.42-.5-.7-.65-.28-.14-.59-.22-.93-.22-.39,0-.75.09-1.06.26s-.56.42-.74.74c-.18.32-.27.69-.27,1.1s.09.79.27,1.11c.18.32.42.57.74.74.31.17.67.26,1.06.26.34,0,.65-.07.93-.22.28-.14.51-.36.7-.65l.83.52c-.23.41-.56.73-.99.96s-.91.33-1.45.33c-.61,0-1.16-.13-1.64-.4Z"></path><path class="cls-2" d="M228.25,66.48h1.09v4.37l3.68-4.37h.98v6h-1.09v-4.37l-3.67,4.37h-1v-6Z"></path><path class="cls-2" d="M237.24,66.48h1.09v4.37l3.68-4.37h.98v6h-1.09v-4.37l-3.67,4.37h-1v-6Z"></path><path class="cls-2" d="M250.4,66.48h1.09v4.37l3.68-4.37h.98v6h-1.09v-4.37l-3.67,4.37h-1v-6Z"></path><path class="cls-2" d="M265.14,72.04c-.64-.35-1.14-.83-1.5-1.45-.36-.61-.54-1.31-.54-2.08s.18-1.46.54-2.08c.36-.61.86-1.1,1.51-1.45.64-.35,1.36-.53,2.15-.53.62,0,1.18.1,1.7.31.51.21.95.52,1.31.92l-.74.71c-.6-.63-1.34-.94-2.23-.94-.59,0-1.12.13-1.6.4-.48.26-.85.63-1.11,1.09-.27.46-.4.98-.4,1.56s.13,1.09.4,1.56c.27.46.64.83,1.11,1.09.48.26,1.01.4,1.6.4.88,0,1.63-.32,2.23-.95l.74.71c-.36.41-.8.72-1.32.93-.52.21-1.08.32-1.7.32-.79,0-1.51-.17-2.14-.53Z"></path><path class="cls-2" d="M279.81,64.55v7.92h-1.13v-3.53h-4.55v3.53h-1.13v-7.92h1.13v3.41h4.55v-3.41h1.13Z"></path><path class="cls-2" d="M288.6,65.54h-4.07v6.94s-1.11,0-1.11,0v-7.92h5.19v.98Z"></path></g><g><polygon class="cls-1" points="45.49 11.71 28.46 46.93 11.39 11.71 0 11.71 0 53.98 7.1 53.98 7.1 18.82 24.46 53.98 32.41 53.98 49.77 18.77 49.77 53.98 56.87 53.98 56.87 11.71 45.49 11.71"></polygon><polygon class="cls-1" points="71.5 47.45 71.5 35.95 99.12 35.95 99.12 29.75 71.5 29.75 71.5 18.25 100.47 18.25 100.47 11.71 63.89 11.71 63.89 53.98 100.76 53.98 100.76 47.45 71.5 47.45"></polygon><polygon class="cls-1" points="147.27 11.71 104.89 11.71 104.89 18.25 122.36 18.25 122.36 53.98 129.8 53.98 129.8 18.25 147.27 18.25 147.27 11.71"></polygon><path class="cls-1" d="M241.28,47.45V11.71h-36.9v14.76c0,5.3-.4,9.53-1.21,13.03-.79,3.43-2.01,6.07-3.66,7.95h-5.22v6.54h53.75v-6.54h-6.76ZM233.84,47.56h-26.53c1.32-1.77,2.31-4.32,2.99-7.67.68-3.34,1.01-7.38,1.01-12.12,0,0,0-.02,0-.02h0v-9.5h22.53v29.31Z"></path><path class="cls-1" d="M292.77,53.98h7.95l-20.29-42.27h-9.3l-20.29,42.27h7.95l3.05-6.54h27.88l3.05,6.54ZM264.73,41.25l11.04-23.64,11.04,23.64h-22.09Z"></path><path class="cls-1" d="M191.92,21.38c-1.57-2.54-3.62-4.64-6.15-6.32l-4.89,5.12c1.86,1.17,3.35,2.68,4.47,4.55,1.37,2.29,2.06,5,2.06,8.12s-.69,5.82-2.06,8.12c-1.37,2.29-3.3,4.06-5.78,5.3s-5.43,1.86-8.85,1.86-6.32-.62-8.82-1.86c-2.5-1.24-4.43-3.01-5.81-5.3-1.37-2.29-2.06-5-2.06-8.12s.69-5.82,2.06-8.12c1.37-2.29,3.31-4.06,5.81-5.3,2.5-1.24,5.44-1.86,8.82-1.86.87,0,1.71.04,2.52.12v-6.67c-.82-.06-1.66-.1-2.52-.1-4.81,0-9.04.92-12.68,2.76-3.65,1.84-6.48,4.41-8.51,7.69-2.03,3.29-3.04,7.11-3.04,11.47s1.01,8.18,3.04,11.47c2.03,3.29,4.87,5.85,8.51,7.69,3.64,1.84,7.87,2.76,12.68,2.76s9.04-.92,12.68-2.76c3.64-1.84,6.48-4.41,8.51-7.69,2.03-3.29,3.04-7.11,3.04-11.47s-1.01-8.18-3.04-11.47Z"></path></g><polygon class="cls-3" points="169.9 21.17 169.9 31.89 190.3 10.73 190.3 0 169.9 21.17"></polygon></g></g></svg>